<svg width="42" height="36" viewBox="0 0 42 36" fill="none" xmlns="http://www.w3.org/2000/svg">
<path d="M5.99593 24.2632C4.46955 24.2632 3.17213 23.7412 2.10367 22.6974C1.03521 21.6535 0.500977 20.386 0.500977 18.8947C0.500977 17.4035 1.03521 16.136 2.10367 15.0921C3.17213 14.0482 4.46955 13.5263 5.99593 13.5263V9.94737C5.99593 8.96316 6.35493 8.12032 7.07294 7.41884C7.79094 6.71737 8.65304 6.36723 9.65923 6.36842H15.1542C15.1542 4.87719 15.6884 3.60965 16.7569 2.56579C17.8253 1.52193 19.1227 1 20.6491 1C22.1755 1 23.4729 1.52193 24.5414 2.56579C25.6098 3.60965 26.1441 4.87719 26.1441 6.36842H31.639C32.6464 6.36842 33.5091 6.71916 34.2271 7.42063C34.9452 8.1221 35.3035 8.96435 35.3023 9.94737V13.5263C36.8287 13.5263 38.1261 14.0482 39.1946 15.0921C40.263 16.136 40.7973 17.4035 40.7973 18.8947C40.7973 20.386 40.263 21.6535 39.1946 22.6974C38.1261 23.7412 36.8287 24.2632 35.3023 24.2632V31.4211C35.3023 32.4053 34.9433 33.2481 34.2253 33.9496C33.5073 34.6511 32.6452 35.0012 31.639 35H9.65923C8.65182 35 7.78911 34.6493 7.0711 33.9478C6.3531 33.2463 5.9947 32.4041 5.99593 31.4211V24.2632ZM15.1542 20.6842C15.9174 20.6842 16.5664 20.4229 17.1012 19.9004C17.6361 19.3779 17.9029 18.7444 17.9017 18C17.9017 17.2544 17.6342 16.6203 17.0994 16.0978C16.5645 15.5753 15.9161 15.3146 15.1542 15.3158C14.391 15.3158 13.742 15.5771 13.2071 16.0996C12.6723 16.6221 12.4055 17.2556 12.4067 18C12.4067 18.7456 12.6741 19.3797 13.209 19.9022C13.7438 20.4247 14.3922 20.6854 15.1542 20.6842ZM26.1441 20.6842C26.9073 20.6842 27.5563 20.4229 28.0911 19.9004C28.626 19.3779 28.8928 18.7444 28.8916 18C28.8916 17.2544 28.6241 16.6203 28.0893 16.0978C27.5544 15.5753 26.906 15.3146 26.1441 15.3158C25.3809 15.3158 24.7319 15.5771 24.197 16.0996C23.6622 16.6221 23.3954 17.2556 23.3966 18C23.3966 18.7456 23.664 19.3797 24.1989 19.9022C24.7337 20.4247 25.3821 20.6854 26.1441 20.6842ZM13.3225 27.8421H27.9757V24.2632H13.3225V27.8421ZM9.65923 31.4211H31.639V9.94737H9.65923V31.4211Z" stroke="white"/>
</svg>
