<svg width="36" height="36" viewBox="0 0 36 36" fill="none" xmlns="http://www.w3.org/2000/svg">
<path d="M18.0002 11.4614V7.53833M18.0002 11.4614C15.8295 11.4614 14.0771 11.4614 14.0771 14.0768C14.0771 17.9999 21.9233 17.9999 21.9233 21.9229C21.9233 24.5383 20.171 24.5383 18.0002 24.5383M18.0002 11.4614C20.171 11.4614 21.9233 12.4553 21.9233 14.0768M14.0771 21.9229C14.0771 23.8845 15.8295 24.5383 18.0002 24.5383M18.0002 24.5383V28.4614" stroke="#33A7F9" stroke-width="2" stroke-linecap="round" stroke-linejoin="round"/>
<path d="M18 35C27.3888 35 35 27.3888 35 18C35 8.61116 27.3888 1 18 1C8.61116 1 1 8.61116 1 18C1 27.3888 8.61116 35 18 35Z" stroke="#33A7F9" stroke-width="2" stroke-linecap="round" stroke-linejoin="round"/>
</svg>
