<svg width="34" height="34" viewBox="0 0 34 34" fill="none" xmlns="http://www.w3.org/2000/svg">
<path d="M22.6642 4.25009C22.6642 3.87436 22.8135 3.51402 23.0792 3.24834C23.3449 2.98265 23.7052 2.83339 24.0809 2.83339C24.4567 2.83339 24.817 2.98265 25.0827 3.24834C25.3484 3.51402 25.4976 3.87436 25.4976 4.25009C25.4976 4.62582 25.3484 4.98616 25.0827 5.25185C24.817 5.51753 24.4567 5.66679 24.0809 5.66679C23.7052 5.66679 23.3449 5.51753 23.0792 5.25185C22.8135 4.98616 22.6642 4.62582 22.6642 4.25009ZM24.0809 3.73119e-07C23.2623 -0.000342596 22.4609 0.235763 21.7732 0.679935C21.0856 1.12411 20.5408 1.75744 20.2044 2.50381C19.868 3.25017 19.7544 4.07781 19.8771 4.88722C19.9998 5.69663 20.3537 6.45338 20.8962 7.06648L19.131 10.2427C18.1244 9.92521 17.0596 9.83675 16.0144 9.98382C14.9692 10.1309 13.9701 10.5098 13.0902 11.0927L10.917 8.91386C11.3491 8.00917 11.4475 6.98084 11.1948 6.01062C10.942 5.0404 10.3544 4.19077 9.53583 3.6119C8.71723 3.03302 7.72033 2.76218 6.72135 2.84725C5.72237 2.93231 4.78562 3.3678 4.07668 4.07675C3.36773 4.78569 2.93224 5.72244 2.84718 6.72142C2.76211 7.7204 3.03295 8.7173 3.61183 9.5359C4.1907 10.3545 5.04033 10.9421 6.01055 11.1948C6.98077 11.4476 8.0091 11.3492 8.91379 10.9171L11.087 13.0931C10.5024 13.9723 10.1228 14.9716 9.9762 16.0171C9.82957 17.0627 9.91965 18.1278 10.2398 19.1339L7.06358 20.8991C6.31213 20.2354 5.35025 19.8588 4.34794 19.8357C3.34564 19.8126 2.36744 20.1446 1.58623 20.773C0.805031 21.4014 0.271124 22.2857 0.0788765 23.2697C-0.113371 24.2536 0.0484203 25.2739 0.535653 26.1501C1.02289 27.0263 1.80419 27.7021 2.74148 28.058C3.67876 28.4138 4.71168 28.4269 5.65768 28.0949C6.60367 27.7628 7.40183 27.1071 7.91108 26.2435C8.42033 25.3799 8.60789 24.364 8.44061 23.3755L11.6197 21.6103C12.3778 22.4968 13.3434 23.1819 14.4305 23.6046C15.5177 24.0273 16.6925 24.1744 17.8503 24.0328L18.638 26.3959C17.8468 27.0116 17.2988 27.8873 17.0908 28.868C16.8827 29.8487 17.0281 30.8714 17.5011 31.7553C17.9742 32.6393 18.7445 33.3275 19.6759 33.6984C20.6073 34.0693 21.6399 34.0991 22.5911 33.7823C23.5423 33.4656 24.3509 32.8228 24.874 31.9675C25.3971 31.1123 25.601 30.0997 25.4498 29.1086C25.2985 28.1175 24.8017 27.2118 24.0473 26.5516C23.2928 25.8914 22.3293 25.5191 21.3269 25.5005L20.5364 23.1375C22.0437 22.2676 23.1998 20.8594 23.7409 19.1736L25.6081 19.3832C25.8364 20.3595 26.4024 21.2236 27.2061 21.8229C28.0098 22.4223 28.9995 22.7181 30.0003 22.6583C31.0011 22.5985 31.9485 22.1868 32.6751 21.496C33.4017 20.8052 33.8607 19.8798 33.971 18.8833C34.0812 17.8868 33.8357 16.8834 33.2777 16.0504C32.7197 15.2175 31.8853 14.6086 30.9218 14.3314C29.9583 14.0542 28.9278 14.1265 28.0125 14.5356C27.0972 14.9446 26.356 15.6641 25.9198 16.5669L24.0498 16.36C23.8849 14.5227 23.0084 12.8226 21.6074 11.6226L23.3726 8.44068C23.9525 8.53875 24.5464 8.51539 25.1168 8.3721C25.6872 8.22881 26.2216 7.9687 26.6863 7.60822C27.151 7.24775 27.5358 6.79475 27.8164 6.27789C28.097 5.76104 28.2673 5.19157 28.3165 4.60551C28.3657 4.01946 28.2927 3.42957 28.1021 2.87318C27.9116 2.31678 27.6077 1.80599 27.2096 1.3731C26.8115 0.94022 26.3278 0.594672 25.7893 0.35832C25.2508 0.121967 24.6691 -4.58702e-05 24.0809 3.73119e-07ZM7.08058 5.66679C7.45631 5.66679 7.81666 5.81605 8.08234 6.08173C8.34802 6.34741 8.49728 6.70775 8.49728 7.08349C8.49728 7.45922 8.34802 7.81956 8.08234 8.08524C7.81666 8.35092 7.45631 8.50018 7.08058 8.50018C6.70485 8.50018 6.34451 8.35092 6.07883 8.08524C5.81314 7.81956 5.66388 7.45922 5.66388 7.08349C5.66388 6.70775 5.81314 6.34741 6.07883 6.08173C6.34451 5.81605 6.70485 5.66679 7.08058 5.66679ZM4.24719 22.6672C4.62292 22.6672 4.98326 22.8164 5.24894 23.0821C5.51463 23.3478 5.66388 23.7081 5.66388 24.0838C5.66388 24.4596 5.51463 24.8199 5.24894 25.0856C4.98326 25.3513 4.62292 25.5005 4.24719 25.5005C3.87146 25.5005 3.51111 25.3513 3.24543 25.0856C2.97975 24.8199 2.83049 24.4596 2.83049 24.0838C2.83049 23.7081 2.97975 23.3478 3.24543 23.0821C3.51111 22.8164 3.87146 22.6672 4.24719 22.6672ZM19.8309 29.7506C19.8309 29.3749 19.9801 29.0146 20.2458 28.7489C20.5115 28.4832 20.8718 28.3339 21.2476 28.3339C21.6233 28.3339 21.9836 28.4832 22.2493 28.7489C22.515 29.0146 22.6642 29.3749 22.6642 29.7506C22.6642 30.1264 22.515 30.4867 22.2493 30.7524C21.9836 31.0181 21.6233 31.1673 21.2476 31.1673C20.8718 31.1673 20.5115 31.0181 20.2458 30.7524C19.9801 30.4867 19.8309 30.1264 19.8309 29.7506ZM29.7477 17.0004C30.1235 17.0004 30.4838 17.1496 30.7495 17.4153C31.0152 17.681 31.1644 18.0413 31.1644 18.4171C31.1644 18.7928 31.0152 19.1531 30.7495 19.4188C30.4838 19.6845 30.1235 19.8338 29.7477 19.8338C29.372 19.8338 29.0117 19.6845 28.746 19.4188C28.4803 19.1531 28.331 18.7928 28.331 18.4171C28.331 18.0413 28.4803 17.681 28.746 17.4153C29.0117 17.1496 29.372 17.0004 29.7477 17.0004ZM16.9975 12.7503C18.1247 12.7503 19.2057 13.198 20.0027 13.9951C20.7998 14.7921 21.2476 15.8732 21.2476 17.0004C21.2476 18.1276 20.7998 19.2086 20.0027 20.0056C19.2057 20.8027 18.1247 21.2505 16.9975 21.2505C15.8703 21.2505 14.7892 20.8027 13.9922 20.0056C13.1951 19.2086 12.7474 18.1276 12.7474 17.0004C12.7474 15.8732 13.1951 14.7921 13.9922 13.9951C14.7892 13.198 15.8703 12.7503 16.9975 12.7503Z" fill="white"/>
</svg>
