<svg width="20" height="21" viewBox="0 0 20 21" fill="none" xmlns="http://www.w3.org/2000/svg">
<path d="M1.47268 16.0859C1.22658 16.0234 1.03518 15.9023 0.847675 15.6953C0.625019 15.4492 0.531269 15.1836 0.535175 14.8242C0.542988 14.2773 0.253925 14.5977 5.39064 9.46484L10 4.85547L14.6094 9.46484C19.7461 14.5977 19.4571 14.2773 19.4649 14.8242C19.4688 15.1914 19.375 15.4531 19.1367 15.7109C18.8828 15.9883 18.6328 16.0977 18.2422 16.1016C17.668 16.1094 17.9961 16.3984 13.7774 12.1836L10 8.41016L6.2383 12.168C3.18361 15.2227 2.44533 15.9414 2.29689 16.0078C2.08205 16.1016 1.68752 16.1367 1.47268 16.0859Z" fill="#FBFBFB"/>
</svg>
