<svg width="71" height="71" viewBox="0 0 71 71" fill="none" xmlns="http://www.w3.org/2000/svg">
<mask id="path-1-outside-1_607_1581" maskUnits="userSpaceOnUse" x="18" y="14" width="34" height="40" fill="black">
<rect fill="white" x="18" y="14" width="34" height="40"/>
<path d="M21 51V39.6667ZM35.1667 51V28.3333ZM49.3333 51V17Z"/>
</mask>
<path d="M18.5 51C18.5 52.3807 19.6193 53.5 21 53.5C22.3807 53.5 23.5 52.3807 23.5 51H18.5ZM23.5 39.6667C23.5 38.286 22.3807 37.1667 21 37.1667C19.6193 37.1667 18.5 38.286 18.5 39.6667H23.5ZM32.6667 51C32.6667 52.3807 33.786 53.5 35.1667 53.5C36.5474 53.5 37.6667 52.3807 37.6667 51H32.6667ZM37.6667 28.3333C37.6667 26.9526 36.5474 25.8333 35.1667 25.8333C33.786 25.8333 32.6667 26.9526 32.6667 28.3333H37.6667ZM46.8333 51C46.8333 52.3807 47.9526 53.5 49.3333 53.5C50.714 53.5 51.8333 52.3807 51.8333 51H46.8333ZM51.8333 17C51.8333 15.6193 50.714 14.5 49.3333 14.5C47.9526 14.5 46.8333 15.6193 46.8333 17H51.8333ZM23.5 51V39.6667H18.5V51H23.5ZM37.6667 51V28.3333H32.6667V51H37.6667ZM51.8333 51V17H46.8333V51H51.8333Z" fill="#33A7F9" mask="url(#path-1-outside-1_607_1581)"/>
<circle cx="35.5" cy="35.5" r="35.5" fill="white" fill-opacity="0.16"/>
</svg>
